HIERARCHY
ROOT Hips
{
    OFFSET 0.000000 0.000000 0.000000
    CHANNELS 6 Xposition Yposition Zposition Zrotation Xrotation Yrotation
    JOINT Spine
    {
        OFFSET -0.000000 7.315584 0.000000
        CHANNELS 3 Zrotation Xrotation Yrotation
        JOINT Spine1
        {
            OFFSET -0.000000 21.742830 0.000000
            CHANNELS 3 Zrotation Xrotation Yrotation
            JOINT Neck
            {
                OFFSET -0.000000 21.653538 1.968503
                CHANNELS 3 Zrotation Xrotation Yrotation
                JOINT Head
                {
                    OFFSET -0.000000 12.490022 -1.784289
                    CHANNELS 3 Zrotation Xrotation Yrotation
                    End Site
                    {
                        OFFSET -0.000000 22.303610 0.000000
                    }
                }
            }
            JOINT LeftShoulder
            {
                OFFSET 3.565460 21.440739 -0.045508
                CHANNELS 3 Zrotation Xrotation Yrotation
                JOINT LeftArm
                {
                    OFFSET 5.865323 0.000000 0.000000
                    CHANNELS 3 Zrotation Xrotation Yrotation
                    JOINT LeftForeArm
                    {
                        OFFSET 30.083149 0.000000 0.000000
                        CHANNELS 3 Zrotation Xrotation Yrotation
                        JOINT LeftHand
                        {
                            OFFSET 21.313328 0.000000 0.000000
                            CHANNELS 3 Zrotation Xrotation Yrotation
                            End Site
                            {
                                OFFSET 13.382167 0.000000 0.000000
                            }
                        }
                    }
                }
            }
            JOINT RightShoulder
            {
                OFFSET -3.556053 21.440739 -0.045508
                CHANNELS 3 Zrotation Xrotation Yrotation
                JOINT RightArm
                {
                    OFFSET -5.865323 0.000000 0.000000
                    CHANNELS 3 Zrotation Xrotation Yrotation
                    JOINT RightForeArm
                    {
                        OFFSET -30.083149 0.000000 0.000000
                        CHANNELS 3 Zrotation Xrotation Yrotation
                        JOINT RightHand
                        {
                            OFFSET -21.313328 0.000000 0.000000
                            CHANNELS 3 Zrotation Xrotation Yrotation
                            End Site
                            {
                                OFFSET -13.382167 0.000000 0.000000
                            }
                        }
                    }
                }
            }
        }
    }
    JOINT LeftUpLeg
    {
        OFFSET 8.921444 0.000000 0.000000
        CHANNELS 3 Zrotation Xrotation Yrotation
        JOINT LeftLeg
        {
            OFFSET -0.000000 -39.632927 0.000000
            CHANNELS 3 Zrotation Xrotation Yrotation
            JOINT LeftFoot
            {
                OFFSET -0.000000 -38.058365 0.000000
                CHANNELS 3 Zrotation Xrotation Yrotation
                JOINT LeftToeBase
                {
                    OFFSET -0.000000 -5.798938 13.382167
                    CHANNELS 3 Zrotation Xrotation Yrotation
                    End Site
                    {
                        OFFSET -0.000000 0.000000 3.568577
                    }
                }
            }
        }
    }
    JOINT RightUpLeg
    {
        OFFSET -8.921444 0.000000 0.000000
        CHANNELS 3 Zrotation Xrotation Yrotation
        JOINT RightLeg
        {
            OFFSET -0.000000 -39.632927 0.000000
            CHANNELS 3 Zrotation Xrotation Yrotation
            JOINT RightFoot
            {
                OFFSET -0.000000 -38.058365 0.000000
                CHANNELS 3 Zrotation Xrotation Yrotation
                JOINT RightToeBase
                {
                    OFFSET -0.000000 -5.798938 13.382167
                    CHANNELS 3 Zrotation Xrotation Yrotation
                    End Site
                    {
                        OFFSET -0.000000 0.000000 3.568577
                    }
                }
            }
        }
    }
}
MOTION
Frames:    4
Frame Time:    0.004000
-2.861790    78.809914    -111.876785    6.296534    -5.382039    5.461067    -3.287452    -11.537786    0.784847    -2.742569    11.693969    1.397820    -3.026046    39.660538    2.517916    -2.388553    8.455855    1.731944    -10.595292    17.532928    -10.840742    -30.822304    59.532379    -24.897602    4.198225    -17.534340    -26.954773    -2.940124    -16.559328    -0.490146    12.031954    17.588535    0.818819    19.007994    62.511497    33.609669    -0.569771    -9.890302    25.132990    3.610806    -9.702056    2.057712    -10.084407    3.383460    -0.292553    -4.038607    1.371791    1.783989    10.217687    -3.429976    7.013516    0.000000    0.000000    0.000000    -9.676046    0.800335    -5.063429    2.053802    58.045036    5.708860    4.544624    -5.927610    -7.298501    0.000000    0.000000    0.000000    
-2.857208    78.817474    -111.658600    6.230113    -5.342021    5.504122    -3.324135    -11.473367    0.702444    -2.677548    11.586337    1.308097    -2.872418    39.684669    2.528746    -2.593641    8.486326    1.765607    -10.575497    17.581036    -10.896772    -30.569563    59.587624    -25.099096    4.085546    -17.477049    -26.869429    -3.121986    -16.529367    -0.515119    12.098429    17.590681    0.922391    19.184683    62.370682    33.374008    -0.538405    -9.864219    25.127621    3.535910    -9.686720    1.975179    -9.989019    3.457974    -0.180420    -4.080778    1.473942    1.658449    10.257541    -3.655359    6.984762    0.000000    0.000000    0.000000    -9.546330    0.222998    -4.966795    1.839265    58.319607    6.520297    4.362848    -6.468030    -7.963264    0.000000    0.000000    0.000000    
-2.835665    78.835274    -111.418701    6.183469    -5.343293    5.420361    -3.347152    -11.449835    0.689906    -2.555999    11.640008    1.285982    -2.995000    39.563324    2.546918    -2.471828    8.501326    1.768039    -10.588585    17.566679    -10.847387    -30.416447    59.463993    -25.321556    3.966174    -17.291359    -26.780979    -3.251283    -16.372919    -0.507037    12.054944    17.644180    0.856593    18.994392    62.212959    33.594933    -0.530707    -9.939972    25.164724    3.323499    -9.769772    1.900664    -9.948020    3.636511    -0.007472    -4.090847    1.463399    1.567598    10.242659    -3.803966    7.049276    0.000000    0.000000    0.000000    -9.456974    -0.297292    -4.689791    1.719962    58.469833    6.354662    3.690480    -6.965948    -7.641815    0.000000    0.000000    0.000000    
-2.809519    78.854721    -111.176300    6.110548    -5.353388    5.345314    -3.286470    -11.387195    0.678392    -2.555443    11.553455    1.264601    -2.903963    39.850353    2.489874    -2.627464    8.046887    1.699674    -10.553465    17.609165    -10.923523    -30.201590    59.785656    -25.541233    4.076464    -17.473980    -26.617603    -3.197273    -16.540152    -0.402290    12.069588    17.616827    0.918275    19.247232    62.089947    33.349277    -0.399216    -10.068871    25.157570    3.025713    -9.930562    1.977109    -9.887806    3.813864    0.123449    -4.082852    1.475069    1.489451    10.251585    -3.946040    7.085929    0.000000    0.000000    0.000000    -9.440168    -0.785117    -4.137411    2.401445    58.594669    6.299199    3.412292    -7.587151    -8.543791    0.000000    0.000000    0.000000    
